<!DOCTYPE svg PUBLIC "-//W3C//DTD SVG 1.1//EN" "http://www.w3.org/Graphics/SVG/1.1/DTD/svg11.dtd">
<!-- Uploaded to: SVG Repo, www.svgrepo.com, Transformed by: SVG Repo Mixer Tools -->
<svg fill="#ec0404" height="800px" width="800px" version="1.1" id="Capa_1" xmlns="http://www.w3.org/2000/svg" xmlns:xlink="http://www.w3.org/1999/xlink" viewBox="0 0 59.304 59.304" xml:space="preserve" stroke="#ec0404" stroke-width="0.0005930400000000001">
<g id="SVGRepo_bgCarrier" stroke-width="0"/>
<g id="SVGRepo_tracerCarrier" stroke-linecap="round" stroke-linejoin="round"/>
<g id="SVGRepo_iconCarrier"> <g> <g> <path d="M59.304,7.731c0-0.486-0.189-0.943-0.533-1.286l-5.914-5.914c-0.709-0.707-1.863-0.708-2.572,0.001l-1.822,1.822 l-0.757-0.757c-0.391-0.391-1.023-0.391-1.414,0s-0.391,1.023,0,1.414l0.757,0.757l-1.586,1.586l-0.757-0.757 c-0.391-0.391-1.023-0.391-1.414,0s-0.391,1.023,0,1.414l0.757,0.757L6.464,44.354l-0.757-0.757c-0.391-0.391-1.023-0.391-1.414,0 s-0.391,1.023,0,1.414l0.757,0.757l-1.586,1.586l-0.757-0.757c-0.391-0.391-1.023-0.391-1.414,0s-0.391,1.023,0,1.414l0.757,0.757 l-1.517,1.517C0.189,50.629,0,51.086,0,51.572c0,0.485,0.189,0.942,0.533,1.286l5.913,5.912c0.344,0.344,0.801,0.533,1.287,0.533 s0.943-0.189,1.286-0.533l1.517-1.517l0.758,0.758c0.195,0.195,0.451,0.293,0.707,0.293s0.512-0.098,0.707-0.293 c0.391-0.391,0.391-1.023,0-1.414l-0.758-0.758l1.586-1.586l0.758,0.758c0.195,0.195,0.451,0.293,0.707,0.293 s0.512-0.098,0.707-0.293c0.391-0.391,0.391-1.023,0-1.414l-0.758-0.758l37.586-37.585l0.757,0.757 c0.195,0.195,0.451,0.293,0.707,0.293s0.512-0.098,0.707-0.293c0.391-0.391,0.391-1.023,0-1.414L53.95,13.84l1.586-1.586 l0.757,0.757c0.195,0.195,0.451,0.293,0.707,0.293s0.512-0.098,0.707-0.293c0.391-0.391,0.391-1.023,0-1.414L56.95,10.84 l1.822-1.822C59.115,8.674,59.304,8.217,59.304,7.731z M7.731,57.228l-5.657-5.656l1.39-1.39l5.656,5.656L7.731,57.228z M10.535,54.425l-5.656-5.656l1.586-1.586l5.657,5.656L10.535,54.425z M13.535,51.425l-5.657-5.656L45.464,8.182l5.657,5.657 L13.535,51.425z M52.536,12.425l-5.657-5.657l1.586-1.586l5.657,5.657L52.536,12.425z M55.536,9.425l-5.657-5.657l1.694-1.694 l5.657,5.657L55.536,9.425z"/> <path d="M22,32.304c0.552,0,1,0.448,1,1s-0.448,1-1,1s-1-0.448-1-1S21.448,32.304,22,32.304z M26,32.304c0.552,0,1,0.448,1,1 s-0.448,1-1,1s-1-0.448-1-1S25.448,32.304,26,32.304z M26,28.304c0.552,0,1,0.448,1,1s-0.448,1-1,1s-1-0.448-1-1 S25.448,28.304,26,28.304z M26,36.304c0.552,0,1,0.448,1,1s-0.448,1-1,1s-1-0.448-1-1S25.448,36.304,26,36.304z M30,32.304 c0.552,0,1,0.448,1,1s-0.448,1-1,1s-1-0.448-1-1S29.448,32.304,30,32.304z M30,28.304c0.552,0,1,0.448,1,1s-0.448,1-1,1 s-1-0.448-1-1S29.448,28.304,30,28.304z M30,24.304c0.552,0,1,0.448,1,1s-0.448,1-1,1s-1-0.448-1-1S29.448,24.304,30,24.304z M34,28.304c0.552,0,1,0.448,1,1s-0.448,1-1,1s-1-0.448-1-1S33.448,28.304,34,28.304z M34,24.304c0.552,0,1,0.448,1,1 s-0.448,1-1,1s-1-0.448-1-1S33.448,24.304,34,24.304z M34,20.304c0.552,0,1,0.448,1,1s-0.448,1-1,1s-1-0.448-1-1 S33.448,20.304,34,20.304z M38,24.304c0.552,0,1,0.448,1,1s-0.448,1-1,1s-1-0.448-1-1S37.448,24.304,38,24.304z"/> </g> </g> </g>
</svg>